name processed_emg_signals
nRows=57
nColumns=7
 
endheader
time	LGLTMED	LRF	LADDLONG	LST	LTA	LGM
1.455	0.176103874990917	0.0181759912208011	0.0225204372532916	0.8355315972264017	0.1412140699938392	0.316926041249348
1.456	0.1759578741232089	0.0178349186873068	0.022467362554509	0.835289633427521	0.1404677340218695	0.3148867441910892
1.457	0.1758134849287076	0.0175180876895498	0.0224171620332065	0.8347947835570475	0.1396851269169811	0.3127872930661395
1.458	0.1756701756494355	0.0172251067256557	0.0223696590007147	0.8340507342757882	0.1388664387295856	0.3106297032022762
1.459	0.1755274410877776	0.0169555690476185	0.0223246779010323	0.8330614000803283	0.138011916484334	0.3084160073743542
1.46	0.1753848036876568	0.0167090533817557	0.0222820446062725	0.8318309157827722	0.137121863129448	0.3061482534182424
1.461	0.1752418145391464	0.016485124650209	0.0222415867056344	0.8303636288082424	0.1361966364322631	0.303828501857243
1.462	0.1750980543075887	0.016283334692365	0.0222031337873892	0.8286640913266444	0.1352366478250514	0.3014588235435051
1.463	0.1749531340890203	0.0161032229852154	0.022166517713502	0.8267370522333546	0.1342423612052677	0.2990412973162918
1.464	0.1748066961940769	0.015944317361725	0.022131572886512	0.8245874489920247	0.1332142916943686	0.2965780076787149
1.465	0.1746584148625643	0.01580613472639	0.0220981365083715	0.8222203993513922	0.1321530043590546	0.2940710424945691
1.466	0.1745079969107454	0.0156881817673213	0.0220660488309007	0.8196411929465355	0.1310591128985467	0.2915224907071967
1.467	0.1743551823130982	0.0155899556642185	0.0220351533975521	0.8168552827930449	0.1299332783011168	0.2889344400827043
1.468	0.1741997447200166	0.0155109447917451	0.022005297276099	0.8138682766805087	0.1287762074728953	0.2863089749803476
1.469	0.1740414919126143	0.0154506294178146	0.0219763312819212	0.8106859284695701	0.1275886518418457	0.2836481741534419
1.47	0.1738802661954717	0.0154084823963534	0.0219481101914929	0.8073141292950261	0.1263714059397922	0.2809541085847643
1.471	0.1737159447279949	0.0153839698540774	0.0219204929457049	0.8037588986759707	0.1251253059653079	0.2782288393608392
1.472	0.1735484397949082	0.0153765518708301	0.0218933428426481	0.800026375532953	0.1238512283301881	0.2754744155897082
1.473	0.1733776990164652	0.0153856831530014	0.0218665277194658	0.7961228091118848	0.1225500881921015	0.2726928723667971
1.474	0.1732037054989509	0.0154108136995801	0.0218399201229004	0.7920545498152836	0.1212228379757709	0.2698862287932234
1.475	0.1730264779260921	0.0154513894604474	0.0218133974680999	0.7878280399434782	0.1198704658849825	0.2670564860505375
1.476	0.1728460705919021	0.0155068529865329	0.0217868421852935	0.7834498043508491	0.1184939944076298	0.2642056255355067
1.477	0.1726625733752644	0.0155766440715427	0.0217601418538667	0.7789264410240869	0.1170944788158787	0.2613356070581832
1.478	0.1724761116563729	0.015660200384935	0.0217331893234184	0.7742646115904718	0.1156730056634263	0.2584483671059157
1.479	0.1722868461747368	0.0157569580958563	0.0217058828213996	0.7694710317649227	0.1142306912815403	0.2555458171754056
1.48	0.1720949728282589	0.0158663524877127	0.0216781260469823	0.7645524617457676	0.1127686802753907	0.2526298421743689
1.481	0.1719007224126393	0.0159878185630631	0.0216498282509229	0.7595156965714757	0.1112881440219291	0.2497022988940649
1.482	0.171704360300282	0.0161207916385042	0.0216209043012487	0.7543675564534881	0.1097902791704561	0.2467650145536253
1.483	0.1715061860576788	0.0162647079292281	0.0215912747347431	0.7491148771032993	0.1082763061469556	0.2438197854168452
1.484	0.1713065330000366	0.0164190051229236	0.0215608657942868	0.7437645000744727	0.1067474676632251	0.2408683754817746
1.485	0.1711057676816903	0.0165831229426999	0.0215296094522078	0.7383232631422593	0.1052050272318039	0.2379125152431326
1.486	0.1709042893206306	0.016756503698706	0.0214974434198596	0.732797990744757	0.1036502676876648	0.2349539005272996
1.487	0.1707025291554701	0.0169385928281622	0.0214643111436601	0.7271954845097379	0.1020844897174711	0.2319941913994795
1.488	0.1705009497331202	0.0171288394234575	0.0214301617878419	0.7215225138905852	0.1005090103970793	0.2290350111426721
1.489	0.1703000441255962	0.0173266967480502	0.0213949502041411	0.7157858069331128	0.0989251617377997	0.2260779453082858
1.49	0.1701003350744705	0.0175316227398568	0.0213586368886866	0.7099920411932888	0.0973342892418958	0.2231245408386142
1.491	0.1699023740620335	0.0177430805018249	0.0213211879263913	0.704147834824142	0.0957377504680827	0.2201763052619439
1.492	0.1697067403091706	0.0179605387794298	0.0212825749231932	0.6982597378489064	0.0941369136080325	0.2172347059615579
1.493	0.1695140397012344	0.0181834724248268	0.0212427749265287	0.6923342236365972	0.0925331560754742	0.2143011695205165
1.494	0.1693249036446285	0.0184113628473835	0.0212017703344692	0.6863776805957393	0.0909278631098304	0.2113770811444378
1.495	0.1691399878577746	0.0186436984503488	0.0211595487940025	0.6803964041018865	0.0893224263968493	0.2084637841646143
1.496	0.168959971100765	0.0188799750533314	0.0211161030889441	0.674396588674536	0.0877182427088351	0.2055625796236464
1.497	0.1687855538481484	0.0191196963002957	0.0210714310180675	0.6683843204186888	0.0861167125672601	0.2026747259455491
1.498	0.1686174569093435	0.0193623740527196	0.0210255352640714	0.6623655697454554	0.0845192389304228	0.1998014386920285
1.499	0.1684564200011221	0.0196075287675706	0.0209784232540615	0.6563461843848194	0.082927225908667	0.1969438904063888
1.5	0.1683032002764808	0.0198546898597545	0.0209301070122851	0.6503318827019524	0.081342077509441	0.1941032105463149
1.5010000000000001	0.1681585708140085	0.0201033960487077	0.0208806030058515	0.6443282473267548	0.0797651964142179	0.1912804855066464
1.502	0.1680233190716656	0.0203531956888022	0.0208299319841276	0.6383407191046296	0.0781979827891192	0.1884767587330767
1.5030000000000001	0.1678982453087144	0.0206036470833526	0.0207781188125476	0.6323745913749222	0.076641833130863	0.1856930309274863
1.504	0.167784160979389	0.0208543187820431	0.0207251923015171	0.6264350045820419	0.0750981391494878	0.1829302603452574
1.5050000000000001	0.1676818871018767	0.021104789861697	0.0206711850310754	0.6205269412227746	0.0735682866890757	0.1801893631844933
1.506	0.1675922526062262	0.0213546501903659	0.0206161331719389	0.614655221131963	0.0720536546874711	0.1774712140666342
1.5070000000000001	0.1675160926648279	0.0216035006746941	0.0205600763035244	0.6088244971075852	0.0705556141757053	0.1747766466074669
1.508	0.1674542470089871	0.0218509534906219	0.0205030572294468	0.6030392508754097	0.0690755273176659	0.1721064540770892
1.5090000000000001	0.1674075582349032	0.0220966322974217	0.020445121791009	0.5973037893927211	0.0676147464902964	0.1694613901470194
1.51	0.1673768701020369	0.0223401724352038	0.0203863186790979	0.5916222414899808	0.0661746134044751	0.1668421697223817
1.5110000000000001	0.1673630258265122	0.0225812211059411	0.0203266992449218	0.5859985548483828	0.0647564582665638	0.1642494698570026
